# xmcd CD database file
#
# Track frame offsets:
#	150
#	11916
#	25783
#	37485
#	52113
#	67878
#	81641
#	92848
#	106632
#	121660
#	133914
#	145723
#	155923
#	173103
#	188675
#	207554
#	225869
#	244982
#	261500
#	273472
#
# Disc length: 3863 seconds
#
# Revision: 6
# Processed by: cddbd v1.5.2PL0 Copyright (c) Steve Scherf et al.
# Submitted via: CDex 1.70beta2
#
DISCID=270f1514
DTITLE=Various Artist - Best Jazz 100 (Disc2)
DYEAR=2006
DGENRE=Jazz
TTITLE0=Fly Me To The Moon - Julie London
TTITLE1=But Not For Me - Chet Baker
TTITLE2=When You Wish Upon A Star - June Christy
TTITLE3=Dream A Little Dream Of Me - June Hutton
TTITLE4=Let There Be Love - Dodo Greene
TTITLE5=Skyliner - June Christy
TTITLE6=The Good Life - Nancy Wilson
TTITLE7=Georgia On My Mind - Dean Martin
TTITLE8=Begin The Beguine - Jo STafford
TTITLE9=I’ve Got You Under My Skin - Dinah Shore
TTITLE10=I Concentrate On You - Mel Torme
TTITLE11=Just In Time - Dean Martin
TTITLE12=Someday My Prince Will Come - Ernestine Anderson
TTITLE13=The Days Of Wine And Roses - Nancy Wilson
TTITLE14=More Than This - Charlie Hunter ＆ Norah Jones
TTITLE15=My Foolish Heart - Kurt Elling
TTITLE16=Gentle On My Mind - Caecilie Norby
TTITLE17=At Last - Lou Rawls ＆ Daianne Reeves
TTITLE18=You Don’t Have To Say You Love Me - Vikki Carr
TTITLE19=Over The Rainbow - Judy Garland
EXTD=YEAR: 2006
EXTT0=
EXTT1=
EXTT2=
EXTT3=
EXTT4=
EXTT5=
EXTT6=
EXTT7=
EXTT8=
EXTT9=
EXTT10=
EXTT11=
EXTT12=
EXTT13=
EXTT14=
EXTT15=
EXTT16=
EXTT17=
EXTT18=
EXTT19=
PLAYORDER=
